<?xml version="1.0" encoding="UTF-8"?>
<svg version="1.1" xmlns="http://www.w3.org/2000/svg" width="501" height="498">
<path d="M0 0 C22.11 0 44.22 0 67 0 C69.59075667 8.41995918 72.01007228 16.7083601 74.0625 25.25 C75.58764639 31.59331442 77.19832117 37.81526904 79.32788086 43.98388672 C80.30977159 46.92920226 81.03008555 49.91861344 81.75 52.9375 C85.52664678 68.42888465 89.82646034 83.79087941 94.09179688 99.15332031 C96.97480152 109.53813193 99.78460957 119.92622459 102.35253906 130.39355469 C103.72067881 135.95176709 105.2403592 141.44981984 106.84375 146.9453125 C108.75570947 153.57136046 110.50195129 160.2442753 112.28808594 166.9050293 C114.21473691 174.08781852 116.16025898 181.26504258 118.125 188.4375 C119.99893268 195.28142804 121.83121282 202.13464951 123.625 209 C124.41361162 212.0008128 125.20579392 215.00066346 126 218 C126.17241211 218.65468262 126.34482422 219.30936523 126.52246094 219.98388672 C128.73151225 228.3055079 131.40265304 236.17553181 135 244 C135.28891113 244.63228516 135.57782227 245.26457031 135.87548828 245.91601562 C139.65257292 254.09349207 143.5253069 261.36525206 149.53125 268.1796875 C151 270 151 270 151 272 C151.66 272 152.32 272 153 272 C153 272.66 153 273.32 153 274 C153.66 274 154.32 274 155 274 C155 274.66 155 275.32 155 276 C155.66 276 156.32 276 157 276 C157 276.66 157 277.32 157 278 C157.57105469 278.26554687 158.14210938 278.53109375 158.73046875 278.8046875 C161.11723398 280.06174458 163.1475069 281.51714675 165.3125 283.125 C171.83641613 287.77096726 178.88999068 291.35019522 186 295 C186 295.66 186 296.32 186 297 C134.19 297 82.38 297 29 297 C29 296.34 29 295.68 29 295 C30.16015625 294.74476563 30.16015625 294.74476563 31.34375 294.484375 C41.16514314 292.19919937 48.82663735 289.27732443 56 282 C56.33 281.34 56.66 280.68 57 280 C57.66 280 58.32 280 59 280 C68.10388561 252.56695804 60.90338432 226.95697213 52.8203125 200.125 C50.92685659 193.8229307 49.19711237 187.48239151 47.5 181.125 C47.21068604 180.04202637 46.92137207 178.95905273 46.62329102 177.84326172 C46.03840906 175.65056482 45.45418068 173.45769348 44.87060547 171.26464844 C43.73078106 166.99046673 42.57852328 162.71968734 41.42578125 158.44897461 C35.98868936 138.30128936 30.56934901 118.14928916 25.375 97.9375 C23.14554621 89.26462481 20.77856396 80.64858832 18.2668457 72.05371094 C16.17566312 64.81016929 14.35834766 57.50914752 12.5625 50.1875 C9.8199474 39.01696934 6.76913165 27.97055264 3.48046875 16.94921875 C3.09834229 15.6660376 3.09834229 15.6660376 2.70849609 14.35693359 C2.2670685 12.88844911 1.81817287 11.42216307 1.35791016 9.95947266 C0.24817229 6.34431432 0 3.90941943 0 0 Z " fill="#060606" transform="translate(168,47)"/>
<path d="M0 0 C24.09 0 48.18 0 73 0 C73 9.57 73 19.14 73 29 C72.01 29 71.02 29 70 29 C69.79246094 28.3709375 69.58492188 27.741875 69.37109375 27.09375 C66.98927413 20.47647709 63.60913752 13.30456876 57 10 C57 9.34 57 8.68 57 8 C55.63875 7.566875 55.63875 7.566875 54.25 7.125 C51 6 51 6 47 4 C43.37 3.34 39.74 2.68 36 2 C36 17.84 36 33.68 36 50 C45.97329368 46.37334775 51.03993154 44.17753417 55.4375 35 C55.623125 34.34 55.80875 33.68 56 33 C56.99 33 57.98 33 59 33 C59 45.21 59 57.42 59 70 C58.01 70 57.02 70 56 70 C55.01 67.03 54.02 64.06 53 61 C52.34 61 51.68 61 51 61 C51 60.34 51 59.68 51 59 C50.34 59 49.68 59 49 59 C49 58.34 49 57.68 49 57 C44.69959812 55.53157009 40.37204934 54.23727437 36 53 C36.06885529 58.90862048 36.15681197 64.81653184 36.26245117 70.72460938 C36.29569726 72.73429499 36.32373019 74.74407391 36.34643555 76.75390625 C36.37998722 79.64363347 36.43230337 82.53250593 36.48828125 85.421875 C36.49467117 86.31992859 36.5010611 87.21798218 36.50764465 88.14324951 C36.60658644 93.03281945 36.60658644 93.03281945 38.36401367 97.52050781 C40.40338151 99.3647951 42.40077248 100.15700729 45 101 C45 101.66 45 102.32 45 103 C30.15 103 15.3 103 0 103 C0 102.34 0 101.68 0 101 C0.94875 100.5875 1.8975 100.175 2.875 99.75 C6.25802223 97.85550755 6.79835929 97.52141567 8 94 C8.19593748 91.20483166 8.28349558 88.50971944 8.2746582 85.71484375 C8.27976913 84.88187775 8.28488007 84.04891174 8.29014587 83.19070435 C8.30403685 80.43956299 8.30308569 77.68867224 8.30078125 74.9375 C8.30466803 73.02465725 8.30900266 71.11181537 8.31376648 69.19897461 C8.32122731 65.1908895 8.32093808 61.18289247 8.31567383 57.17480469 C8.30987484 52.03649653 8.32682123 46.89854831 8.3500185 41.76029968 C8.36474261 37.81064747 8.36562942 33.86108226 8.36250877 29.91140747 C8.3630225 28.01676723 8.36826989 26.12212219 8.37832069 24.22750854 C8.3906442 21.57981886 8.38391851 18.93283447 8.37231445 16.28515625 C8.37995819 15.50165802 8.38760193 14.71815979 8.39547729 13.91091919 C8.36432729 10.69864526 8.22035364 8.39666185 6.6446991 5.56030273 C4.61218835 3.63208859 2.64627445 2.85825117 0 2 C0 1.34 0 0.68 0 0 Z " fill="#070707" transform="translate(296,368)"/>
<path d="M0 0 C32.01 0 64.02 0 97 0 C96.43670934 30.33722567 95.83595091 60.66922821 95 91 C92 90 92 90 90.421875 86.859375 C89.8564114 85.49293652 89.29967944 84.12286406 88.75 82.75 C75.91969128 52.33841757 53.5184972 25.74864867 23 12 C21.35136692 11.15124974 19.70544415 10.29721074 18.0625 9.4375 C12.22341517 6.50366945 6.12592747 4.25641529 0 2 C0 1.34 0 0.68 0 0 Z " fill="#0E0E0E" transform="translate(356,47)"/>
<path d="M0 0 C14.85 0 29.7 0 45 0 C45 0.66 45 1.32 45 2 C44.05125 2.391875 43.1025 2.78375 42.125 3.1875 C38.4313836 5.32979751 38.12415251 5.98621265 37 10 C36.70651474 12.97448726 36.68889986 15.9337973 36.68115234 18.92114258 C36.66608391 20.25360016 36.66608391 20.25360016 36.65071106 21.61297607 C36.61989599 24.54015474 36.60284851 27.467242 36.5859375 30.39453125 C36.56722451 32.42763555 36.547651 34.4607321 36.5272522 36.49382019 C36.47593887 41.83832221 36.43630877 47.18284941 36.39910889 52.52746582 C36.35906431 57.98386866 36.30797401 63.44016683 36.2578125 68.89648438 C36.16106262 79.59758272 36.07665474 90.29874017 36 101 C38.58138698 100.22218166 41.16029761 99.43739119 43.73828125 98.6484375 C44.46631958 98.42986084 45.19435791 98.21128418 45.94445801 97.98608398 C54.15656738 95.45964033 59.73776772 91.6501605 64 84 C65.15401401 81.35828119 66.08660325 78.74019025 67 76 C67.99 76 68.98 76 70 76 C70 84.91 70 93.82 70 103 C46.9 103 23.8 103 0 103 C0 102.34 0 101.68 0 101 C1.423125 100.319375 1.423125 100.319375 2.875 99.625 C6.00313679 98.19761746 6.00313679 98.19761746 8 96 C8.19342849 93.18421453 8.26221437 90.46715808 8.24291992 87.65063477 C8.24481827 86.78709381 8.24671661 85.92355286 8.24867249 85.03384399 C8.25238739 82.16960671 8.24166505 79.30562113 8.23046875 76.44140625 C8.22927712 74.4560499 8.22882375 72.47069299 8.2290802 70.4853363 C8.22751404 66.31985964 8.21921498 62.15446876 8.20581055 57.98901367 C8.18883158 52.6444012 8.18499584 47.2998832 8.18575573 41.95524693 C8.18548401 37.85380651 8.18000226 33.75238682 8.17275429 29.65095329 C8.16956751 27.68013605 8.16760019 25.70931646 8.16686058 23.73849678 C8.16469651 20.98521029 8.15595039 18.23202465 8.14526367 15.47875977 C8.14571686 14.66047195 8.14617004 13.84218414 8.14663696 12.99909973 C8.12811377 9.74138023 8.03754683 7.1126405 7 4 C3.48809191 2.77030122 3.48809191 2.77030122 0 2 C0 1.34 0 0.68 0 0 Z " fill="#080808" transform="translate(137,368)"/>
<path d="M0 0 C14.85 0 29.7 0 45 0 C45 0.66 45 1.32 45 2 C43.02 2.33 41.04 2.66 39 3 C39 3.66 39 4.32 39 5 C38.34 5 37.68 5 37 5 C36.95371014 16.8130976 36.91814785 28.62617371 36.89637566 40.43934345 C36.88592742 45.9243572 36.87174923 51.40930901 36.84912109 56.89428711 C36.82742983 62.18513284 36.81543921 67.4759189 36.81024551 72.76680565 C36.80654307 74.78787361 36.79931336 76.80893821 36.78853989 78.82998085 C36.7740744 81.65536241 36.77201999 84.48049572 36.77294922 87.3059082 C36.76575867 88.14603958 36.75856812 88.98617096 36.75115967 89.85176086 C36.76510689 93.75698432 36.78345275 95.67517912 39 99 C41.6906979 99.4043525 41.6906979 99.4043525 44.75 99.25 C45.8225 99.22421875 46.895 99.1984375 48 99.171875 C51.06008621 98.99655756 54.0056449 98.66541225 57 98 C57 97.34 57 96.68 57 96 C57.86625 95.505 58.7325 95.01 59.625 94.5 C65.8730905 90.56163016 69.01380118 82.84131556 71 76 C71.31124376 72.93452052 71.31124376 72.93452052 71.29052734 69.72265625 C71.30328705 68.50118896 71.31604675 67.27972168 71.32919312 66.02124023 C71.33141876 64.71485596 71.33364441 63.40847168 71.3359375 62.0625 C71.34237233 60.69539249 71.34910119 59.32828633 71.35610962 57.96118164 C71.36804875 55.10332038 71.37179373 52.24557973 71.37060547 49.38769531 C71.37040199 45.7359116 71.39774745 42.0849036 71.43214989 38.43330383 C71.45444219 35.61247236 71.45844239 32.79182728 71.45738602 29.97091675 C71.46087467 27.97347243 71.48251426 25.97608628 71.50448608 23.97875977 C71.52955885 15.16534067 71.52955885 15.16534067 67 8 C63.23515706 4.33690957 59.99170795 3.17451952 55 2 C55 1.34 55 0.68 55 0 C67.21 0 79.42 0 92 0 C92 0.66 92 1.32 92 2 C91.40832031 2.15855469 90.81664062 2.31710937 90.20703125 2.48046875 C83.48432898 4.46547546 79.94468706 7.08296941 76 13 C75.69157634 15.65059248 75.69157634 15.65059248 75.72875977 18.67382812 C75.71857315 19.83934204 75.70838654 21.00485596 75.69789124 22.20568848 C75.69575119 23.46812378 75.69361115 24.73055908 75.69140625 26.03125 C75.67268123 28.02039656 75.65393899 30.00954313 75.63422298 31.99868011 C75.58896442 36.89908814 75.56540908 41.79963526 75.54370117 46.70019531 C75.53080423 49.44669729 75.5099973 52.19294781 75.48143005 54.93933105 C75.45538893 57.52037084 75.44129517 60.10156812 75.4410553 62.68273926 C75.31251862 74.15700354 73.47553766 86.06950653 65.33203125 94.78515625 C57.65349047 101.68397766 49.98620773 103.34818464 39.87109375 103.2109375 C30.43139657 102.51740873 23.46765054 98.76369967 17.0546875 91.92578125 C9.04833131 82.32820364 8.55946106 73.05597631 8.55859375 60.859375 C8.54679994 59.40446661 8.53343086 57.94957023 8.51856995 56.49468994 C8.48260583 52.68925878 8.46224535 48.88393417 8.44702148 45.07836914 C8.42206171 38.9747453 8.38240685 32.87135653 8.32512093 26.76795197 C8.30886424 24.64470308 8.30502225 22.52167973 8.30210876 20.39837646 C8.29192215 19.10643372 8.28173553 17.81449097 8.27124023 16.48339844 C8.26696518 15.34916443 8.26269012 14.21493042 8.25828552 13.04632568 C7.99317783 9.91953658 7.47485899 7.76366325 6 5 C2.98303591 3.15725024 2.98303591 3.15725024 0 2 C0 1.34 0 0.68 0 0 Z " fill="#090909" transform="translate(376,368)"/>
<path d="M0 0 C0.99 0.33 1.98 0.66 3 1 C4.0625 3.6953125 4.0625 3.6953125 5 7.125 C6.3823696 11.94234861 7.96254484 16.4157259 10 21 C12.14064337 26.51730677 14.05235105 32.08119866 15.75 37.75 C19.62354269 50.52668539 24.22533872 63.08042636 28.7421875 75.640625 C29.08668442 76.59986122 29.08668442 76.59986122 29.43814087 77.57847595 C30.57104133 80.73242229 31.70758398 83.88491376 32.85009766 87.03540039 C33.26050293 88.17485107 33.6709082 89.31430176 34.09375 90.48828125 C34.46177734 91.50446533 34.82980469 92.52064941 35.20898438 93.56762695 C36 96 36 96 36 98 C37.134375 98.268125 38.26875 98.53625 39.4375 98.8125 C40.613125 99.204375 41.78875 99.59625 43 100 C43.33 100.99 43.66 101.98 44 103 C28.82 103 13.64 103 -2 103 C-1.505 101.515 -1.505 101.515 -1 100 C-0.34 99.7525 0.32 99.505 1 99.25 C3.32697336 98.09755188 3.32697336 98.09755188 3.9375 95 C4.21877362 89.89879009 4.21877362 89.89879009 1 81 C-7.91 80.67 -16.82 80.34 -26 80 C-26.73767726 89.59897563 -26.73767726 89.59897563 -23 97 C-19.76306376 98.66277401 -16.46347371 99.89532734 -13 101 C-13 101.66 -13 102.32 -13 103 C-25.21 103 -37.42 103 -50 103 C-49.67 102.01 -49.34 101.02 -49 100 C-47.04947056 99.27268394 -45.09664509 98.55047406 -43.12890625 97.87109375 C-37.59100974 95.60512876 -33.72538571 91.19860269 -31 86 C-29.26298055 81.59947445 -27.79272165 77.11736173 -26.3125 72.625 C-25.43378574 70.00467539 -24.54767912 67.38688386 -23.66015625 64.76953125 C-23.4380246 64.11262802 -23.21589294 63.45572479 -22.98703003 62.77891541 C-20.87736841 56.57151063 -18.58709931 50.43769154 -16.25 44.3125 C-13.31737196 36.61458969 -10.57961945 28.88866276 -8.03735352 21.05371094 C-6.27653779 15.68088559 -4.23505424 10.47289179 -1.98046875 5.28515625 C-0.92324263 2.9088222 -0.92324263 2.9088222 0 0 Z M-13 44 C-15.77742665 51.17706708 -18.53041981 58.3633188 -21.25 65.5625 C-21.50797363 66.24054688 -21.76594727 66.91859375 -22.03173828 67.6171875 C-23.20684083 70.73828489 -24.18933196 73.75732782 -25 77 C-16.75 77 -8.5 77 0 77 C-3.63 66.11 -7.26 55.22 -11 44 C-11.66 44 -12.32 44 -13 44 Z " fill="#0B0B0B" transform="translate(86,368)"/>
<path d="M0 0 C0.99 0 1.98 0 3 0 C3.10546143 0.84594727 3.21092285 1.69189453 3.31958008 2.56347656 C3.72196747 5.76248906 4.13097452 8.96057259 4.54418945 12.15820312 C4.72026537 13.53092238 4.8938517 14.90396373 5.06469727 16.27734375 C6.50430247 27.82795909 8.08242684 39.11941489 13.5 49.5625 C14.38171875 51.29693359 14.38171875 51.29693359 15.28125 53.06640625 C16.72139573 55.52447317 17.97921352 57.07162754 20 59 C20 59.66 20 60.32 20 61 C20.66 61 21.32 61 22 61 C22 61.66 22 62.32 22 63 C22.66 63 23.32 63 24 63 C24 63.66 24 64.32 24 65 C24.56589844 65.27199219 25.13179688 65.54398437 25.71484375 65.82421875 C28.08264168 67.04252161 30.30409678 68.40239321 32.5625 69.8125 C37.84529322 73.0168172 43.32918729 75.56349112 49 78 C49 78.66 49 79.32 49 80 C18.64 80 -11.72 80 -43 80 C-41.57446503 75.72339508 -40.41161925 72.65975055 -38.2421875 68.875 C-37.43334106 67.45465454 -37.43334106 67.45465454 -36.6081543 66.00561523 C-36.03621338 65.01376221 -35.46427246 64.02190918 -34.875 63 C-34.28823486 61.97269775 -33.70146973 60.94539551 -33.09692383 59.88696289 C-31.40244736 56.92203746 -29.70156574 53.96086047 -28 51 C-27.214091 49.62412762 -26.42881848 48.24789123 -25.64453125 46.87109375 C-23.43283367 42.99069021 -21.21440295 39.11419982 -18.98974609 35.24121094 C-12.33130628 23.64908907 -5.90503144 11.99852133 0 0 Z " fill="#0C0C0C" transform="translate(93,264)"/>
<path d="M0 0 C0.33 0 0.66 0 1 0 C1 33.99 1 67.98 1 103 C0.34 103 -0.32 103 -1 103 C-2.515625 101.05859375 -2.515625 101.05859375 -4.25 98.4375 C-6.49657951 95.11708375 -8.77191345 91.99482764 -11.4375 89 C-14 86 -14 86 -14 84 C-14.556875 83.773125 -15.11375 83.54625 -15.6875 83.3125 C-18.64187072 81.63569499 -20.63102343 79.42675648 -23 77 C-23.928125 76.278125 -24.85625 75.55625 -25.8125 74.8125 C-26.534375 74.214375 -27.25625 73.61625 -28 73 C-28 72.34 -28 71.68 -28 71 C-28.7734375 70.62875 -28.7734375 70.62875 -29.5625 70.25 C-32.77184151 68.60418384 -35.87585664 66.8023904 -39 65 C-39 64.34 -39 63.68 -39 63 C-39.81984375 62.75378906 -40.6396875 62.50757813 -41.484375 62.25390625 C-45.59438485 60.78800274 -49.3714934 58.922926 -53.25 56.9375 C-53.96929687 56.57333984 -54.68859375 56.20917969 -55.4296875 55.83398438 C-57.28811648 54.89258917 -59.14422315 53.94661263 -61 53 C-61.66 52.67 -62.32 52.34 -63 52 C-62.67 51.01 -62.34 50.02 -62 49 C-59.76953125 48.11328125 -59.76953125 48.11328125 -56.8125 47.3125 C-44.40227635 43.42602427 -34.09506924 36.00384029 -24 28 C-23.10410156 27.31421875 -22.20820313 26.6284375 -21.28515625 25.921875 C-18.81614671 24.0272817 -18.81614671 24.0272817 -17 21 C-16.34 21 -15.68 21 -15 21 C-15 20.34 -15 19.68 -15 19 C-14.34 19 -13.68 19 -13 19 C-12.34 17.35 -11.68 15.7 -11 14 C-10.34 14 -9.68 14 -9 14 C-8.74347656 13.44828125 -8.48695313 12.8965625 -8.22265625 12.328125 C-6.81373842 9.64532938 -5.17549991 7.23182032 -3.4375 4.75 C-2.81746094 3.85796875 -2.19742188 2.9659375 -1.55859375 2.046875 C-1.04425781 1.37140625 -0.52992188 0.6959375 0 0 Z " fill="#080808" transform="translate(384,140)"/>
<path d="M0 0 C0.495 1.98 0.495 1.98 1 4 C1.66 4 2.32 4 3 4 C3 4.66 3 5.32 3 6 C2.34 6 1.68 6 1 6 C0.814375 6.82564453 0.814375 6.82564453 0.625 7.66796875 C-1.96312529 18.10134883 -6.09320465 28.00565654 -10 38 C-4.39 38.33 1.22 38.66 7 39 C7 39.33 7 39.66 7 40 C2.545 40.495 2.545 40.495 -2 41 C-2 41.33 -2 41.66 -2 42 C-5.3 42 -8.6 42 -12 42 C-12.68947112 51.0835408 -12.68947112 51.0835408 -9 59 C-5.76306376 60.66277401 -2.46347371 61.89532734 1 63 C1 63.66 1 64.32 1 65 C-11.21 65 -23.42 65 -36 65 C-35.67 64.01 -35.34 63.02 -35 62 C-33.04947056 61.27268394 -31.09664509 60.55047406 -29.12890625 59.87109375 C-23.38817306 57.5221332 -20.13792162 53.12430169 -17 48 C-15.69563696 44.95653896 -15.69563696 44.95653896 -14.66796875 41.73828125 C-14.26497559 40.54485107 -13.86198242 39.3514209 -13.44677734 38.12182617 C-13.02701671 36.85205128 -12.60725762 35.58227588 -12.1875 34.3125 C-11.31247276 31.70962314 -10.43138622 29.10880667 -9.55078125 26.5078125 C-9.2261792 25.54487526 -9.2261792 25.54487526 -8.89501953 24.56248474 C-6.98216639 18.90198713 -4.95882154 13.28698149 -2.875 7.6875 C-2.58004639 6.89448486 -2.28509277 6.10146973 -1.98120117 5.28442383 C-1.32345625 3.52195593 -0.66221599 1.76079285 0 0 Z " fill="#1A1A1A" transform="translate(72,406)"/>
<path d="M0 0 C0.79622772 0.00141495 1.59245544 0.0028299 2.41281128 0.00428772 C4.9601413 0.0098928 7.50738397 0.02244611 10.0546875 0.03515625 C11.77994665 0.0401706 13.50520717 0.04473362 15.23046875 0.04882812 C19.46360254 0.05901372 23.69654704 0.07858805 27.9296875 0.09765625 C27.9296875 9.66765625 27.9296875 19.23765625 27.9296875 29.09765625 C26.9396875 29.09765625 25.9496875 29.09765625 24.9296875 29.09765625 C24.72214844 28.46859375 24.51460938 27.83953125 24.30078125 27.19140625 C21.91896163 20.57413334 18.53882502 13.40222501 11.9296875 10.09765625 C11.9296875 9.43765625 11.9296875 8.77765625 11.9296875 8.09765625 C10.5684375 7.66453125 10.5684375 7.66453125 9.1796875 7.22265625 C5.9296875 6.09765625 5.9296875 6.09765625 1.9296875 4.09765625 C-1.7003125 3.43765625 -5.3303125 2.77765625 -9.0703125 2.09765625 C-9.0703125 17.93765625 -9.0703125 33.77765625 -9.0703125 50.09765625 C-7.7503125 50.42765625 -6.4303125 50.75765625 -5.0703125 51.09765625 C-6.7203125 51.09765625 -8.3703125 51.09765625 -10.0703125 51.09765625 C-10.0703125 34.59765625 -10.0703125 18.09765625 -10.0703125 1.09765625 C-6.89740537 -0.48879732 -3.48205866 -0.02312588 0 0 Z " fill="#2A2A2A" transform="translate(341.0703125,367.90234375)"/>
<path d="M0 0 C0.99 0 1.98 0 3 0 C3 8.91 3 17.82 3 27 C-17.13 27 -37.26 27 -58 27 C-58 26.67 -58 26.34 -58 26 C-43.15 25.505 -43.15 25.505 -28 25 C-28 24.67 -28 24.34 -28 24 C-27.14277344 23.76925781 -26.28554687 23.53851563 -25.40234375 23.30078125 C-15.32854949 20.42742167 -8.22727624 17.38229068 -3 8 C-1.84598599 5.35828119 -0.91339675 2.74019025 0 0 Z " fill="#2A2A2A" transform="translate(204,444)"/>
<path d="M0 0 C0.99 0 1.98 0 3 0 C3 12.21 3 24.42 3 37 C2.01 37 1.02 37 0 37 C-0.99 34.03 -1.98 31.06 -3 28 C-3.66 28 -4.32 28 -5 28 C-5 27.34 -5 26.68 -5 26 C-5.66 26 -6.32 26 -7 26 C-7 25.34 -7 24.68 -7 24 C-11.30322683 22.53060547 -15.62297367 21.22556737 -20 20 C-16.80189659 17.57385259 -13.55659278 15.3387956 -10.125 13.25 C-5.22262095 9.72028708 -1.89540546 5.85852596 0 0 Z " fill="#262626" transform="translate(352,401)"/>
<path d="M0 0 C12.21 0 24.42 0 37 0 C37 0.66 37 1.32 37 2 C36.40832031 2.15855469 35.81664062 2.31710937 35.20703125 2.48046875 C27.13352279 4.86432688 23.41466567 8.84519701 19 16 C18.30570621 17.3191582 17.62469505 18.64649406 17 20 C16.731875 18.948125 16.46375 17.89625 16.1875 16.8125 C14.36284938 10.95441118 12.16997973 7.40748664 7 4 C4.6755518 3.14464172 2.41970898 2.56934329 0 2 C0 1.34 0 0.68 0 0 Z " fill="#1F1F1F" transform="translate(431,368)"/>
<path d="M0 0 C0.33 1.32 0.66 2.64 1 4 C1.66 4 2.32 4 3 4 C3 4.66 3 5.32 3 6 C2.34 6 1.68 6 1 6 C0.87625 6.55042969 0.7525 7.10085938 0.625 7.66796875 C-1.96312529 18.10134883 -6.09320465 28.00565654 -10 38 C-4.39 38.33 1.22 38.66 7 39 C7 39.33 7 39.66 7 40 C2.545 40.495 2.545 40.495 -2 41 C-2 41.33 -2 41.66 -2 42 C-5.3 42 -8.6 42 -12 42 C-12 46.29 -12 50.58 -12 55 C-12.66 54.67 -13.32 54.34 -14 54 C-14.28926947 51.97511372 -14.57272154 49.94755984 -14.75390625 47.91015625 C-14.90406878 45.91747967 -14.90406878 45.91747967 -16 44 C-15.53442383 42.21923828 -15.53442383 42.21923828 -14.70703125 40.0703125 C-14.40837158 39.28068115 -14.10971191 38.4910498 -13.80200195 37.67749023 C-13.47546631 36.83516846 -13.14893066 35.99284668 -12.8125 35.125 C-12.15477733 33.38988044 -11.49852397 31.65420319 -10.84375 29.91796875 C-10.5240625 29.07282715 -10.204375 28.22768555 -9.875 27.35693359 C-8.77980118 24.40686401 -7.78286152 21.43075227 -6.8125 18.4375 C-5.33268643 13.89600317 -3.65194863 9.47424987 -1.83203125 5.05859375 C-1.16000953 3.39589212 -0.56711462 1.70134386 0 0 Z " fill="#737373" transform="translate(72,406)"/>
<path d="M0 0 C0.33 0 0.66 0 1 0 C2.0019297 3.00578911 2.29923484 5.18111831 1.19921875 8.19140625 C-2.70422199 15.70584755 -8.10483508 20.80833759 -16 24 C-21.56567651 25.42377771 -27.29425375 25.09137316 -33 25 C-32.34 24.67 -31.68 24.34 -31 24 C-31 23.34 -31 22.68 -31 22 C-29.80503906 21.90912109 -29.80503906 21.90912109 -28.5859375 21.81640625 C-20.75667303 21.20332134 -20.75667303 21.20332134 -13 20 C-13 19.34 -13 18.68 -13 18 C-12.13375 17.505 -11.2675 17.01 -10.375 16.5 C-5.329886 13.33631806 -1.9611859 7.32761436 -0.33203125 1.6875 C-0.22246094 1.130625 -0.11289062 0.57375 0 0 Z " fill="#4F4F4F" transform="translate(446,446)"/>
<path d="M0 0 C0.33 0 0.66 0 1 0 C1 33.99 1 67.98 1 103 C0.34 103 -0.32 103 -1 103 C-1 70.66 -1 38.32 -1 5 C-1.99 5.66 -2.98 6.32 -4 7 C-2.92598892 4.08482708 -2.22189824 2.22189824 0 0 Z " fill="#242424" transform="translate(384,140)"/>
<path d="M0 0 C0.33 1.32 0.66 2.64 1 4 C1.66 4 2.32 4 3 4 C3 4.66 3 5.32 3 6 C2.34 6 1.68 6 1 6 C0.81824219 6.73605469 0.63648437 7.47210938 0.44921875 8.23046875 C-2.11973816 18.20329121 -2.11973816 18.20329121 -5 22 C-5.33 22 -5.66 22 -6 22 C-5.54425265 14.93591613 -3.80038375 9.46421917 -1 3 C-0.67 2.01 -0.34 1.02 0 0 Z " fill="#565656" transform="translate(72,406)"/>
<path d="M0 0 C0.33 0 0.66 0 1 0 C1 15.51 1 31.02 1 47 C0.67 47 0.34 47 0 47 C-0.495 26.21 -0.495 26.21 -1 5 C-1.99 5.66 -2.98 6.32 -4 7 C-2.92598892 4.08482708 -2.22189824 2.22189824 0 0 Z " fill="#2A2A2A" transform="translate(384,140)"/>
<path d="M0 0 C1.33998047 0.06960938 1.33998047 0.06960938 2.70703125 0.140625 C3.60808594 0.17671875 4.50914063 0.2128125 5.4375 0.25 C6.46810547 0.31960938 6.46810547 0.31960938 7.51953125 0.390625 C7.84953125 1.050625 8.17953125 1.710625 8.51953125 2.390625 C5.21953125 2.390625 1.91953125 2.390625 -1.48046875 2.390625 C-1.48046875 6.680625 -1.48046875 10.970625 -1.48046875 15.390625 C-2.14046875 15.060625 -2.80046875 14.730625 -3.48046875 14.390625 C-3.76973822 12.36573872 -4.05319029 10.33818484 -4.234375 8.30078125 C-4.38453753 6.30810467 -4.38453753 6.30810467 -5.48046875 4.390625 C-3.17521711 0.50003419 -3.17521711 0.50003419 0 0 Z " fill="#515151" transform="translate(61.48046875,445.609375)"/>
<path d="M0 0 C0.33 0.66 0.66 1.32 1 2 C0.67 2.66 0.34 3.32 0 4 C-5.28 4 -10.56 4 -16 4 C-16.33 3.34 -16.66 2.68 -17 2 C-8.585 1.01 -8.585 1.01 0 0 Z " fill="#0A0A0A" transform="translate(86,444)"/>
<path d="M0 0 C4.62 0 9.24 0 14 0 C13 2 13 2 11.296875 2.62109375 C8.57835155 3.06955765 6.00442923 3.09529082 3.25 3.0625 C2.26515625 3.05347656 1.2803125 3.04445313 0.265625 3.03515625 C-0.48203125 3.02355469 -1.2296875 3.01195312 -2 3 C-1.34 2.67 -0.68 2.34 0 2 C0 1.34 0 0.68 0 0 Z " fill="#505050" transform="translate(415,468)"/>
<path d="M0 0 C0.33 0 0.66 0 1 0 C1.22354607 1.89409978 1.42819951 3.7904348 1.625 5.6875 C1.74101562 6.74324219 1.85703125 7.79898437 1.9765625 8.88671875 C2.0010326 12.13716346 1.40852563 14.10230796 0 17 C-0.33 17 -0.66 17 -1 17 C-0.67 11.39 -0.34 5.78 0 0 Z " fill="#2D2D2D" transform="translate(448,434)"/>
<path d="M0 0 C0.99 0.66 1.98 1.32 3 2 C2.01 4.97 1.02 7.94 0 11 C-0.66 10.34 -1.32 9.68 -2 9 C-1.7578125 6.8359375 -1.7578125 6.8359375 -1.125 4.375 C-0.92132813 3.55773437 -0.71765625 2.74046875 -0.5078125 1.8984375 C-0.34023437 1.27195312 -0.17265625 0.64546875 0 0 Z " fill="#656565" transform="translate(65,425)"/>
<path d="M0 0 C0.66 0 1.32 0 2 0 C0.33248852 3.94139078 -2.22710649 6.7892812 -5 10 C-5.99 9.34 -6.98 8.68 -8 8 C-3.375 3.125 -3.375 3.125 0 2 C0 1.34 0 0.68 0 0 Z " fill="#444444" transform="translate(369,159)"/>
<path d="M0 0 C0.99 0 1.98 0 3 0 C2.50351065 4.46840411 2.31012244 5.68987756 -1 9 C-0.67 6.03 -0.34 3.06 0 0 Z " fill="#2D2D2D" transform="translate(67,419)"/>
<path d="M0 0 C2 1 2 1 3 3 C1.03533587 4.06775224 -0.96855359 5.06553465 -3 6 C-5 5 -5 5 -6 3 C-4.02 2.67 -2.04 2.34 0 2 C0 1.34 0 0.68 0 0 Z " fill="#787878" transform="translate(433,464)"/>
<path d="M0 0 C0 0.99 0 1.98 0 3 C-2 5 -2 5 -4.625 5.125 C-5.40875 5.08375 -6.1925 5.0425 -7 5 C-6.67 4.01 -6.34 3.02 -6 2 C-2.9375 0.8125 -2.9375 0.8125 0 0 Z " fill="#343434" transform="translate(43,466)"/>
<path d="M0 0 C0.33 0.66 0.66 1.32 1 2 C0.67 2.66 0.34 3.32 0 4 C-1.98 4 -3.96 4 -6 4 C-6 3.01 -6 2.02 -6 1 C-4.02 0.67 -2.04 0.34 0 0 Z " fill="#494949" transform="translate(86,444)"/>
<path d="M0 0 C1.98 0.99 3.96 1.98 6 3 C6 3.66 6 4.32 6 5 C3.69 5 1.38 5 -1 5 C-0.67 3.35 -0.34 1.7 0 0 Z " fill="#323232" transform="translate(346,338)"/>
<path d="M0 0 C0.99 0.66 1.98 1.32 3 2 C1.1875 3.5625 1.1875 3.5625 -1 5 C-1.99 4.67 -2.98 4.34 -4 4 C-2.68 2.68 -1.36 1.36 0 0 Z " fill="#606060" transform="translate(438,461)"/>
</svg>
